# xmcd
#
# Track frame offsets: 
#        182
#        12650
#        23537
#        36952
#        50565
#        62887
#        77022
#        89805
#        100425
#        111180
#        123442
#        136642
#        148017
#        166445
#        178565
#        192285
#        212315
#        230717
#
# Disc length: 3381 seconds
#
# Revision: 7
# Processed by: cddbd v1.5.2PL0 Copyright (c) Steve Scherf et al.
# Submitted via: ExactAudioCopyFreeDBPlugin 1.0
#
DISCID=fd0d3312
DTITLE=Various Artist - The Muscle Shoals Sound
DYEAR=1993
DGENRE=Soul
TTITLE0=Arthur Alexander - You Better Move On
TTITLE1=Jimmy Hughes - Steal Away
TTITLE2=Percy Sledge - Whe a Man Loves a Woman
TTITLE3=James and Bobby Purify - I'm Your Puppet
TTITLE4=Otis Redding - You Left the Water Running
TTITLE5=Wilson Pickett - Mustang Sally
TTITLE6=Aretha Franklin - I Never Loved a Man (The Way I Love You)
TTITLE7=Arthur Conley - Sweet Soul Music
TTITLE8=Etta James - Tell Mama
TTITLE9=Laura Lee - Up Tight, Good Man
TTITLE10=Percy Sledge - Take Time to Know Her
TTITLE11=Clarence Carter - Slip Away
TTITLE12=Wilson Pickett - Hey Jude
TTITLE13=R.B. Greaves - Take a Letter Maria
TTITLE14=Clarence Carter - Patches
TTITLE15=Staple Singers - I'll Take You There
TTITLE16=Mel and Tim - Starting All Over Again
TTITLE17=Clarence Carter - Making Love (At the Dark End of the Street)
EXTD=
EXTT0=
EXTT1=
EXTT2=
EXTT3=
EXTT4=
EXTT5=
EXTT6=
EXTT7=
EXTT8=
EXTT9=
EXTT10=
EXTT11=
EXTT12=
EXTT13=
EXTT14=
EXTT15=
EXTT16=
EXTT17=
PLAYORDER=
